<?xml version="1.0" encoding="UTF-8"?>
<svg version="1.1" xmlns="http://www.w3.org/2000/svg" width="500" height="500" viewBox="0 0 500 500" preserveAspectRatio="xMidYMid meet">
  <g transform="translate(0.000000,500.000000) scale(0.100000,-0.100000)" fill="#000000" stroke="none">
    <path d="M2035 4492 c-3 -3 -5 -392 -5 -864 l0 -858 -662 0 -663 0 2 -212 c2 -117 3 -216 3 -220 0 -10 1758 -10 1763 0 2 4 2 491 -2 1082 l-6 1075 -213 1 c-117 0 -214 -2 -217 -4z"/>
    <path d="M3393 2333 c-218 -518 -534 -1274 -540 -1290 -4 -10 143 -13 716 -13 397 0 721 2 721 4 0 2 -45 111 -101 242 -55 132 -157 374 -225 539 -239 575 -388 925 -394 925 -4 0 -83 -183 -177 -407z"/>
    <path d="M1140 1495 l0 -445 225 0 225 0 0 445 0 445 -225 0 -225 0 0 -445z"/>
  </g>
</svg>