<?xml version="1.0" standalone="no"?>
<!DOCTYPE svg PUBLIC "-//W3C//DTD SVG 20010904//EN"
 "http://www.w3.org/TR/2001/REC-SVG-20010904/DTD/svg10.dtd">
<svg version="1.0" xmlns="http://www.w3.org/2000/svg"
 width="1024.000000pt" height="1024.000000pt" viewBox="0 0 1024.000000 1024.000000"
 preserveAspectRatio="xMidYMid meet">

<g transform="translate(0.000000,1024.000000) scale(0.100000,-0.100000)"
fill="#000000" stroke="none">
<path d="M3780 7615 l0 -2455 -1890 0 -1890 0 0 -640 0 -640 2525 0 2525 0 0
3095 0 3095 -635 0 -635 0 0 -2455z"/>
<path d="M7132 2643 c-567 -1357 -1030 -2468 -1028 -2470 1 -2 932 -2 2068 -1
l2066 3 -1032 2467 c-567 1357 -1034 2468 -1037 2468 -3 0 -470 -1110 -1037
-2467z"/>
<path d="M1257 2783 c-4 -3 -7 -584 -7 -1290 l0 -1283 640 0 640 0 -2 1288 -3
1287 -631 3 c-347 1 -634 -1 -637 -5z"/>
</g>
</svg>
