<?xml version="1.0" standalone="no"?>
<!DOCTYPE svg PUBLIC "-//W3C//DTD SVG 20010904//EN"
 "http://www.w3.org/TR/2001/REC-SVG-20010904/DTD/svg10.dtd">
<svg version="1.0" xmlns="http://www.w3.org/2000/svg"
 width="1024.000000pt" height="1024.000000pt" viewBox="0 0 1024.000000 1024.000000"
 preserveAspectRatio="xMidYMid meet">

<g transform="translate(0.000000,1024.000000) scale(0.100000,-0.100000)"
fill="#000000" stroke="none">
<path d="M4510 6310 l0 -1170 -900 0 -900 0 0 -305 0 -305 1205 0 1205 0 0
1475 0 1475 -305 0 -305 0 0 -1170z"/>
<path d="M6116 3942 c-269 -642 -491 -1173 -493 -1179 -4 -10 196 -13 982 -13
l987 0 -6 23 c-7 31 -966 2320 -975 2329 -4 4 -227 -518 -495 -1160z"/>
<path d="M3300 3385 l0 -615 305 0 305 0 0 615 0 615 -305 0 -305 0 0 -615z"/>
</g>
</svg>
